<svg width="85" height="89" viewBox="0 0 85 89" fill="none" xmlns="http://www.w3.org/2000/svg">
<path fill-rule="evenodd" clip-rule="evenodd" d="M83.8534 2.20272C81.2447 5.59213 79.9536 8.31338 79.6144 11.1371C79.4964 12.1207 79.4192 24.5041 79.4168 42.8528C79.4128 72.5005 79.4067 72.9763 79.0095 74.396C77.4968 79.8014 72.7666 83.6985 65.0566 85.8915C58.0351 87.8886 51.0338 88.5634 39.4134 88.3625C29.3934 88.1894 24.1538 87.5442 17.7306 85.6927C11.2015 83.8108 6.92161 81.2938 3.7668 77.4811C1.84465 75.1579 0.987038 73.4187 0.399125 70.6522C-0.743433 65.274 0.426056 61.3454 5.74954 52.678C8.3497 48.4445 9.54117 46.2214 10.5336 43.7517C11.7651 40.6876 11.6239 39.8874 9.32256 36.8835L8.08793 35.2721L8.7996 34.914C10.441 34.0885 11.8744 33.781 14.5983 33.6702C21.18 33.4025 25.9986 35.667 29.4421 40.6457C30.9543 42.8318 31.8062 45.4126 32.0749 48.6211C32.3601 52.0248 31.8288 54.4748 29.4098 60.9132C25.9687 70.0727 25.7112 73.6816 28.2629 76.9993C30.9306 80.4679 35.2968 82.1169 40.2071 81.51C45.5569 80.849 48.5909 78.1113 49.8364 72.8204C50.1412 71.5258 50.1877 68.5848 50.3259 41.8321C50.4099 25.5751 50.4311 11.684 50.3731 10.9629C50.0529 6.98922 48.7018 3.74379 46.4921 1.64135L45.5163 0.712891H65.2582H84.9999L83.8534 2.20272Z" fill="white"/>
</svg>
