<svg id="behance" xmlns="http://www.w3.org/2000/svg" width="28.797" height="18" viewBox="0 0 28.797 18">
  <g id="Group_2" data-name="Group 2" transform="translate(0 0)">
    <g id="Group_1" data-name="Group 1">
      <path id="Path_1" data-name="Path 1" d="M11.848,104.115a4.319,4.319,0,0,0,1.359-1,3.874,3.874,0,0,0,.823-2.587,4.426,4.426,0,0,0-.815-2.68Q11.853,96.026,8.6,95.979H0v17.555H8.019a12.539,12.539,0,0,0,2.515-.236,4.945,4.945,0,0,0,2.011-.882,4.868,4.868,0,0,0,1.26-1.381,5.072,5.072,0,0,0,.794-2.8,4.606,4.606,0,0,0-.693-2.572A4,4,0,0,0,11.848,104.115Zm-8.3-5.087H7.421a6.829,6.829,0,0,1,2.1.274,1.575,1.575,0,0,1,.956,1.624,1.653,1.653,0,0,1-.724,1.541,3.63,3.63,0,0,1-1.883.436H3.548Zm6.125,11.151a4.242,4.242,0,0,1-1.8.31H3.548v-4.682H7.929a4.572,4.572,0,0,1,1.782.3,1.882,1.882,0,0,1,1.132,1.885A2.207,2.207,0,0,1,9.673,110.179Z" transform="translate(0 -95.979)" fill="#fff"/>
      <rect id="Rectangle_2" data-name="Rectangle 2" width="7.627" height="2.185" transform="translate(18.403 0.819)" fill="#fff"/>
      <path id="Path_2" data-name="Path 2" d="M292.808,176.392a6.262,6.262,0,0,0-1.051-2.684,5.3,5.3,0,0,0-2.272-1.921,7.52,7.52,0,0,0-3.1-.608,6.407,6.407,0,0,0-4.705,1.8,6.983,6.983,0,0,0-1.813,5.177q0,3.6,2.011,5.2a7.223,7.223,0,0,0,4.635,1.6,6.451,6.451,0,0,0,4.952-1.892,4.259,4.259,0,0,0,1.274-2.347H289.23a2.833,2.833,0,0,1-.709.893,2.941,2.941,0,0,1-1.908.594,3.528,3.528,0,0,1-1.9-.49,3.1,3.1,0,0,1-1.379-2.738h9.589A16.53,16.53,0,0,0,292.808,176.392Zm-9.387.337a3.519,3.519,0,0,1,.918-2.009,2.767,2.767,0,0,1,2.054-.743,3.055,3.055,0,0,1,2.043.7,2.839,2.839,0,0,1,.916,2.054Z" transform="translate(-264.129 -166.949)" fill="#fff"/>
    </g>
  </g>
</svg>
