<svg xmlns="http://www.w3.org/2000/svg" width="38.579" height="30" viewBox="0 0 38.579 30">
  <path id="brackets-duo-tone-colored" d="M13.874,32H7.981a3.75,3.75,0,0,0-3.75,3.75v5.189a2.679,2.679,0,0,1-.785,1.894L.414,45.862a1.607,1.607,0,0,0,0,2.277l3.029,3.029a2.679,2.679,0,0,1,.787,1.894V58.25A3.75,3.75,0,0,0,7.981,62h5.893a1.071,1.071,0,0,0,1.071-1.071V59.857a1.071,1.071,0,0,0-1.071-1.071H7.981a.536.536,0,0,1-.536-.536V53.062a5.9,5.9,0,0,0-1.726-4.167L3.824,47l1.894-1.894a5.9,5.9,0,0,0,1.726-4.168V35.75a.536.536,0,0,1,.536-.536h5.893a1.071,1.071,0,0,0,1.071-1.071V33.071A1.071,1.071,0,0,0,13.874,32ZM38.048,45.862l-3.03-3.029a2.683,2.683,0,0,1-.787-1.894V35.75A3.75,3.75,0,0,0,30.481,32H24.588a1.071,1.071,0,0,0-1.071,1.071v1.071a1.071,1.071,0,0,0,1.071,1.071h5.893a.536.536,0,0,1,.536.536v5.188a5.893,5.893,0,0,0,1.727,4.168L34.637,47l-1.894,1.894a5.893,5.893,0,0,0-1.726,4.168V58.25a.536.536,0,0,1-.536.536H24.588a1.071,1.071,0,0,0-1.071,1.071v1.071A1.071,1.071,0,0,0,24.588,62h5.893a3.75,3.75,0,0,0,3.75-3.75V53.061a2.679,2.679,0,0,1,.785-1.894l3.032-3.028a1.607,1.607,0,0,0,0-2.277Z" transform="translate(0.059 -32)" fill="#607eff"/>
</svg>
