<svg xmlns="http://www.w3.org/2000/svg" width="38.571" height="30" viewBox="0 0 38.571 30">
  <g id="brackets-duo-tone" transform="translate(-0.01 -32)">
    <path id="Path_1" data-name="Path 1" d="M366.373,45.485a2.143,2.143,0,0,1,0,3.03l-3.03,3.03a2.143,2.143,0,0,0-.629,1.516v2.51A6.429,6.429,0,0,1,356.286,62h-3.214A1.071,1.071,0,0,1,352,60.929V58.786a1.071,1.071,0,0,1,1.071-1.071h3.214a2.143,2.143,0,0,0,2.143-2.143v-2.51a6.428,6.428,0,0,1,1.883-4.546L361.828,47l-1.515-1.515a6.428,6.428,0,0,1-1.884-4.548V38.429a2.143,2.143,0,0,0-2.143-2.143h-3.214A1.071,1.071,0,0,1,352,35.214V33.071A1.071,1.071,0,0,1,353.071,32h3.214a6.429,6.429,0,0,1,6.429,6.429v2.51a2.143,2.143,0,0,0,.628,1.517l3.03,3.029Z" transform="translate(-328.419)" fill="#607eff"/>
    <path id="Path_2" data-name="Path 2" d="M13.938,32H10.723a6.429,6.429,0,0,0-6.429,6.429v2.51a2.151,2.151,0,0,1-.628,1.517L.637,45.485a2.143,2.143,0,0,0,0,3.03l3.03,3.03a2.146,2.146,0,0,1,.627,1.516v2.51A6.429,6.429,0,0,0,10.723,62h3.214a1.071,1.071,0,0,0,1.071-1.071V58.786a1.071,1.071,0,0,0-1.071-1.071H10.723a2.143,2.143,0,0,1-2.143-2.143v-2.51A6.428,6.428,0,0,0,6.7,48.516L5.183,47,6.7,45.485a6.429,6.429,0,0,0,1.882-4.546v-2.51a2.143,2.143,0,0,1,2.143-2.143h3.214a1.071,1.071,0,0,0,1.071-1.071V33.071A1.071,1.071,0,0,0,13.938,32Z" transform="translate(0)" fill="#607eff"/>
  </g>
</svg>
