<svg id="old-fashion-briefcase" xmlns="http://www.w3.org/2000/svg" width="36.564" height="30" viewBox="0 0 36.564 30">
  <g id="Group_47" data-name="Group 47" transform="translate(0 0)">
    <g id="Group_46" data-name="Group 46">
      <path id="Path_14" data-name="Path 14" d="M26.245,28.812V28a1.793,1.793,0,0,0-3.585,0v.813a1.793,1.793,0,0,0,3.585,0Z" transform="translate(-6.17 -10.417)" fill="#607eff"/>
      <path id="Path_15" data-name="Path 15" d="M21.579,30.964a3.152,3.152,0,0,1-6.044,0H3.187a5.051,5.051,0,0,1-2.177-.5v8.2a2.919,2.919,0,0,0,2.911,2.911H33.193A2.919,2.919,0,0,0,36.1,38.667v-8.2a5.051,5.051,0,0,1-2.176.5Z" transform="translate(-0.274 -11.578)" fill="#607eff"/>
      <path id="Path_16" data-name="Path 16" d="M33.53,9.172H26.543A5.543,5.543,0,0,0,21.08,4.509h-5.6a5.544,5.544,0,0,0-5.464,4.663H3.031A2.982,2.982,0,0,0,0,12.083V18.8A2.911,2.911,0,0,0,2.91,21.712H15.12a3.161,3.161,0,0,1,.969-2.134c.017-.016.038-.03.056-.046a3.2,3.2,0,0,1,.4-.319c.051-.034.109-.057.162-.088a3.111,3.111,0,0,1,.362-.191,3.17,3.17,0,0,1,.312-.1c.09-.027.176-.063.27-.082a3.15,3.15,0,0,1,.629-.063,3.185,3.185,0,0,1,.628.063c.093.019.18.055.271.082a3.1,3.1,0,0,1,.312.1,3.145,3.145,0,0,1,.36.19c.053.031.111.055.164.089a3.119,3.119,0,0,1,.4.319c.018.017.041.03.057.047a3.157,3.157,0,0,1,.969,2.134H33.652A2.911,2.911,0,0,0,36.563,18.8V12.084A2.982,2.982,0,0,0,33.53,9.172Zm-20.709,0a2.81,2.81,0,0,1,2.661-1.939h5.6a2.81,2.81,0,0,1,2.66,1.939Z" transform="translate(0.001 -4.509)" fill="#607eff"/>
    </g>
  </g>
</svg>
