<svg id="certificate-shape" xmlns="http://www.w3.org/2000/svg" width="30.003" height="30" viewBox="0 0 30.003 30">
  <path id="Path_7" data-name="Path 7" d="M29.565,17.658l-2.693-2.635,2.693-2.635a1.325,1.325,0,0,0,.391-1.366,1.342,1.342,0,0,0-1.015-1l-3.67-.937L26.3,5.457a1.259,1.259,0,0,0-.371-1.366,1.259,1.259,0,0,0-1.366-.371l-3.63,1.035L20,1.085a1.264,1.264,0,0,0-.995-1A1.306,1.306,0,0,0,17.638.46L15,3.174,12.367.46A1.259,1.259,0,0,0,11,.089a1.265,1.265,0,0,0-1,1l-.937,3.67L5.438,3.72a1.259,1.259,0,0,0-1.366.371A1.259,1.259,0,0,0,3.7,5.457L4.735,9.088l-3.67.937a1.342,1.342,0,0,0-1.015,1,1.325,1.325,0,0,0,.39,1.366l2.694,2.635L.44,17.658a1.325,1.325,0,0,0-.39,1.366,1.342,1.342,0,0,0,1.015,1l3.67.937L3.7,24.588a1.259,1.259,0,0,0,.371,1.366,1.259,1.259,0,0,0,1.366.371l3.631-1.034.937,3.67a1.3,1.3,0,0,0,1,1.015,1.326,1.326,0,0,0,1.366-.39L15,26.891l2.636,2.694a1.286,1.286,0,0,0,1,.429A2.429,2.429,0,0,0,19,29.975a1.342,1.342,0,0,0,1-1.015l.937-3.67,3.631,1.034a1.424,1.424,0,0,0,1.738-1.738l-1.034-3.631,3.67-.937a1.342,1.342,0,0,0,1.015-1A1.325,1.325,0,0,0,29.565,17.658Z" transform="translate(-0.001 -0.024)" fill="#607eff"/>
</svg>
