<svg id="dribbble" xmlns="http://www.w3.org/2000/svg" width="24" height="24" viewBox="0 0 24 24">
  <path id="Path_17" data-name="Path 17" d="M12,0A12,12,0,1,0,24,12,12,12,0,0,0,12,0Zm9.7,11.137a31.094,31.094,0,0,0-6.423.426q-.371-.89-.754-1.7c.159-.074.316-.149.47-.227a14.262,14.262,0,0,0,4.661-3.655A9.648,9.648,0,0,1,21.7,11.137ZM18.056,4.368a12.078,12.078,0,0,1-4.533,3.478c-.212-.4-.42-.778-.623-1.134a43.956,43.956,0,0,0-2.763-4.277A9.848,9.848,0,0,1,12,2.257,9.669,9.669,0,0,1,18.056,4.368ZM5.111,5.111A9.749,9.749,0,0,1,7.866,3.173a40.826,40.826,0,0,1,3.1,4.707c.14.247.283.506.428.775a22.51,22.51,0,0,1-3.031.7,29.039,29.039,0,0,1-5.832.326A9.681,9.681,0,0,1,5.111,5.111ZM2.257,12c0-.023,0-.046,0-.069.416.022.946.04,1.564.04a30.9,30.9,0,0,0,4.848-.378,24.143,24.143,0,0,0,3.755-.9q.31.656.615,1.366a20.078,20.078,0,0,0-4.1,1.574,14.138,14.138,0,0,0-4.854,4.051A9.67,9.67,0,0,1,2.257,12Zm3.385,7.384c1.714-2.511,4.478-4.26,8.234-5.214a35.577,35.577,0,0,1,1.769,6.87,9.766,9.766,0,0,1-10-1.656Zm13.246-.494a9.877,9.877,0,0,1-1.145.982,38.094,38.094,0,0,0-1.633-6.157,29.226,29.226,0,0,1,5.533-.318A9.669,9.669,0,0,1,18.889,18.889Z" fill="#fff"/>
</svg>
