<svg id="college-graduation" xmlns="http://www.w3.org/2000/svg" width="36.753" height="30" viewBox="0 0 36.753 30">
  <g id="Layer_5_59_" transform="translate(0 0)">
    <g id="Group_39" data-name="Group 39" transform="translate(0 0)">
      <path id="Path_8" data-name="Path 8" d="M63.844,209.089a4.783,4.783,0,0,1-4.718,0l-10.68-6.55s-.964-.591-.964.748v6.54c0,3.445,6.269,7.16,14,7.16s14-3.714,14-7.16v-6.909c0-1.074-.685-.549-.685-.549Z" transform="translate(-43.108 -186.987)" fill="#607eff"/>
      <path id="Path_9" data-name="Path 9" d="M36.138,46.99a.988.988,0,0,0,0-1.83L19.869,37.025a3.138,3.138,0,0,0-2.984,0L.615,45.16a.988.988,0,0,0,0,1.83l16.269,9.978a3.138,3.138,0,0,0,2.984,0" transform="translate(0 -36.648)" fill="#607eff"/>
      <path id="Path_10" data-name="Path 10" d="M358.506,197.08V186.061s.008-.522-.3-.35a9.007,9.007,0,0,0-1.072.664.925.925,0,0,0-.192.7V197.08a.294.294,0,0,1-.18.244,1.9,1.9,0,1,0,1.92,0A.284.284,0,0,1,358.506,197.08Z" transform="translate(-323.041 -171.948)" fill="#607eff"/>
    </g>
  </g>
</svg>
