<svg id="linkedin-logo" xmlns="http://www.w3.org/2000/svg" width="23.023" height="22" viewBox="0 0 23.023 22">
  <path id="LinkedIn" d="M23.023,23.046v8.512H18.089V23.616c0-2-.714-3.357-2.5-3.357a2.7,2.7,0,0,0-2.532,1.805,3.377,3.377,0,0,0-.164,1.2v8.29H7.957s.066-13.451,0-14.844h4.936v2.1c-.01.016-.023.033-.032.048h.032v-.048a4.9,4.9,0,0,1,4.448-2.453C20.589,16.365,23.023,18.487,23.023,23.046ZM2.793,9.558a2.572,2.572,0,1,0-.066,5.13h.033a2.573,2.573,0,1,0,.033-5.13Zm-2.5,22H5.228V16.714H.293Z" transform="translate(0 -9.558)" fill="#fff"/>
</svg>
