<svg xmlns="http://www.w3.org/2000/svg" width="42.857" height="30" viewBox="0 0 42.857 30">
  <path id="vector" d="M52.571,182.643a4.286,4.286,0,1,0-3.951-5.893H40.786v-1.607A2.141,2.141,0,0,0,38.643,173H32.214a2.141,2.141,0,0,0-2.143,2.143v1.607H22.23a4.286,4.286,0,1,0,0,3.214h5.364a15.535,15.535,0,0,0-7.647,12.321H18.286a2.141,2.141,0,0,0-2.143,2.143v6.429A2.141,2.141,0,0,0,18.286,203h6.429a2.141,2.141,0,0,0,2.143-2.143v-6.429a2.141,2.141,0,0,0-2.143-2.143H23.161a12.324,12.324,0,0,1,7.065-10.078,2.1,2.1,0,0,0,1.989,1.507h6.429a2.085,2.085,0,0,0,1.989-1.507A12.334,12.334,0,0,1,47.7,192.286H46.143A2.141,2.141,0,0,0,44,194.429v6.429A2.141,2.141,0,0,0,46.143,203h6.429a2.141,2.141,0,0,0,2.143-2.143v-6.429a2.141,2.141,0,0,0-2.143-2.143H50.911a15.535,15.535,0,0,0-7.647-12.321h5.357A4.265,4.265,0,0,0,52.571,182.643ZM51.5,178.25l.04-.161a1.071,1.071,0,1,1,0,.536l-.04-.161Zm-32.143.214-.04.161a1.071,1.071,0,1,1,0-.536l.04.161ZM23.643,195.5v4.286H19.357V195.5Zm13.929-15H33.286v-4.286h4.286Zm13.929,15v4.286H47.214V195.5Z" transform="translate(-14 -173)" fill="#607eff"/>
</svg>
