<svg width="106" height="109" viewBox="0 0 106 109" fill="none" xmlns="http://www.w3.org/2000/svg">
<path fill-rule="evenodd" clip-rule="evenodd" d="M104.57 1.85201C101.317 6.06541 99.707 9.44822 99.284 12.9584C99.1368 14.1811 99.0405 29.575 99.0375 52.3844C99.0326 89.2397 99.025 89.8311 98.5296 91.596C96.6432 98.3154 90.7443 103.16 81.1295 105.886C72.3733 108.369 63.6423 109.208 49.1509 108.958C36.6553 108.743 30.1213 107.941 22.1111 105.639C13.969 103.3 8.63166 100.171 4.69743 95.431C2.30039 92.5431 1.2309 90.3811 0.497733 86.942C-0.927105 80.2564 0.531318 75.3727 7.17003 64.5981C10.4126 59.3355 11.8984 56.572 13.1361 53.5018C14.6718 49.6929 14.4957 48.6981 11.6258 44.9639L10.0861 42.9607L10.9736 42.5157C13.0205 41.4895 14.8081 41.1072 18.205 40.9694C26.4128 40.6367 32.4218 43.4517 36.716 49.6407C38.6019 52.3583 39.6643 55.5666 39.9994 59.555C40.3549 63.7862 39.6924 66.8318 36.6758 74.8355C32.3845 86.2216 32.0635 90.708 35.2455 94.8322C38.5723 99.1439 44.0173 101.194 50.1406 100.439C56.8122 99.6178 60.5958 96.2145 62.149 89.6373C62.5291 88.028 62.5871 84.372 62.7595 51.1155C62.8642 30.9064 62.8906 13.6382 62.8182 12.7418C62.4189 7.80215 60.7341 3.76773 57.9785 1.15417L56.7616 0H81.3809H106L104.57 1.85201Z" fill="black"/>
</svg>
