<svg width="175" height="176" viewBox="0 0 175 176" fill="none" xmlns="http://www.w3.org/2000/svg">
<path d="M81.6184 166.491C82.2223 166.54 82.7189 166.697 83.1083 166.961C83.4885 167.232 83.7703 167.556 83.9536 167.931C84.1362 168.315 84.2331 168.701 84.2442 169.088L83.2491 169.006C83.2332 168.781 83.162 168.552 83.0356 168.319C82.9092 168.085 82.72 167.885 82.4683 167.719C82.2165 167.552 81.8907 167.453 81.491 167.42C81.1082 167.388 80.7972 167.423 80.5577 167.523C80.3091 167.631 80.1212 167.783 79.9938 167.979C79.858 168.173 79.7594 168.384 79.698 168.611C79.636 168.846 79.5962 169.07 79.5788 169.283L79.118 174.908L78.1612 174.83L78.6251 169.166C78.6656 168.672 78.7933 168.21 79.0082 167.782C79.2146 167.353 79.5334 167.014 79.9647 166.766C80.3868 166.527 80.938 166.435 81.6184 166.491Z" fill="white"/>
<path d="M72.6722 165.462L70.772 173.737L64.6968 172.336L64.9035 171.436L70.0431 172.622L70.6803 169.846L66.0897 168.788L66.2992 167.875L70.8898 168.934L71.53 166.146L66.3904 164.961L66.5971 164.061L72.6722 165.462Z" fill="white"/>
<path d="M61.2956 162.389L58.1885 170.289L52.4959 168.041L52.8339 167.182L57.6332 169.077L58.7127 166.332L54.4374 164.644L54.78 163.773L59.0554 165.461L60.4024 162.036L61.2956 162.389Z" fill="white"/>
<path d="M50.5013 157.655L46.2563 165.005L40.9607 161.933L41.4224 161.134L45.8871 163.724L47.3619 161.17L43.3847 158.863L43.8528 158.053L47.83 160.36L49.6703 157.173L50.5013 157.655Z" fill="white"/>
<path d="M37.6676 148.937C38.1637 149.342 38.5467 149.798 38.8166 150.306C39.0865 150.813 39.2436 151.344 39.2879 151.899C39.3255 152.448 39.2593 152.99 39.0891 153.524C38.9136 154.064 38.6371 154.567 38.2597 155.031C37.8769 155.501 37.4417 155.874 36.954 156.149C36.4664 156.423 35.9504 156.598 35.4059 156.671C34.8548 156.74 34.3041 156.693 33.7538 156.53C33.2036 156.367 32.6804 156.083 32.1843 155.678C31.6881 155.273 31.3051 154.817 31.0352 154.309C30.7653 153.802 30.6115 153.274 30.5738 152.725C30.5296 152.17 30.5925 151.626 30.7627 151.091C30.9328 150.557 31.2093 150.055 31.5921 149.585C31.9695 149.121 32.4047 148.748 32.8978 148.467C33.3854 148.192 33.9048 148.02 34.4558 147.952C35.0003 147.878 35.5477 147.923 36.098 148.085C36.6483 148.248 37.1715 148.532 37.6676 148.937ZM37.0772 149.663C36.5414 149.225 35.9873 148.966 35.415 148.884C34.8306 148.804 34.2741 148.879 33.7456 149.109C33.205 149.341 32.7352 149.702 32.3362 150.192C31.9319 150.69 31.6738 151.223 31.5619 151.794C31.4435 152.359 31.4851 152.917 31.6866 153.468C31.8762 154.02 32.2388 154.515 32.7746 154.952C33.3038 155.385 33.8606 155.641 34.445 155.721C35.0239 155.808 35.581 155.739 36.1162 155.514C36.6447 155.284 37.1112 154.92 37.5156 154.423C37.9146 153.932 38.176 153.401 38.2998 152.829C38.4116 152.259 38.3695 151.695 38.1733 151.137C37.9717 150.587 37.6064 150.095 37.0772 149.663Z" fill="white"/>
<path d="M30.4858 142.565L24.1025 148.15L23.3701 147.31L25.2976 138.659L19.9267 143.358L19.2953 142.633L25.6786 137.048L26.4111 137.889L24.4643 146.557L29.8544 141.841L30.4858 142.565Z" fill="white"/>
<path d="M22.0997 132.135L14.9136 136.636L11.6098 131.338L12.3914 130.849L15.1864 135.33L17.5962 133.821L15.0998 129.818L15.8922 129.322L18.3886 133.325L20.8093 131.809L18.0144 127.327L18.796 126.838L22.0997 132.135Z" fill="white"/>
<path d="M13.7593 116.337L4.58803 115.538L4.2155 114.392L11.1595 108.335L11.4884 109.348L9.47248 111.098L10.7724 115.099L13.4303 115.324L13.7593 116.337ZM9.81761 115.019L8.74757 111.726L5.35115 114.655L9.81761 115.019Z" fill="white"/>
<path d="M9.56419 99.8041C9.66917 100.497 9.61076 101.138 9.38897 101.725C9.15745 102.305 8.78631 102.79 8.27555 103.179C7.76479 103.568 7.13818 103.819 6.39571 103.932L1.62451 104.657L1.48048 103.706L6.27699 102.977C6.92665 102.878 7.43541 102.675 7.80326 102.368C8.16983 102.053 8.42006 101.682 8.55394 101.255C8.6781 100.821 8.7069 100.384 8.64032 99.9446C8.57247 99.4965 8.41564 99.0879 8.16985 98.7187C7.91562 98.3508 7.56681 98.0709 7.12342 97.8788C6.68003 97.6867 6.1335 97.6401 5.48385 97.7389L0.687333 98.4683L0.5433 97.5171L5.3145 96.7916C6.04853 96.68 6.71702 96.734 7.31996 96.9537C7.9229 97.1734 8.42143 97.5301 8.81554 98.0237C9.20837 98.5089 9.45792 99.1024 9.56419 99.8041Z" fill="white"/>
<path d="M8.47253 89.9837L0 89.8262L0.0662718 86.2479C0.0756148 85.7435 0.182683 85.2622 0.387476 84.8042C0.583895 84.3374 0.868953 83.9236 1.24265 83.5627C1.61635 83.2019 2.06541 82.9195 2.58983 82.7154C3.11426 82.5113 3.70923 82.4155 4.37475 82.4278C5.04026 82.4402 5.63127 82.5581 6.14778 82.7816C6.66429 83.005 7.10258 83.304 7.46266 83.6784C7.82274 84.0529 8.09655 84.4771 8.28408 84.951C8.46324 85.4162 8.54814 85.901 8.5388 86.4055L8.47253 89.9837ZM7.58166 89.005L7.6294 86.4271C7.64065 85.82 7.4968 85.2913 7.19788 84.841C6.89895 84.3907 6.5 84.0411 6.00103 83.7924C5.50222 83.5351 4.95419 83.4008 4.35693 83.3897C3.75114 83.3785 3.19425 83.4921 2.68625 83.7307C2.17842 83.9608 1.77107 84.2953 1.4642 84.7344C1.14881 85.1733 0.985488 85.6962 0.974245 86.3033L0.926501 88.8812L7.58166 89.005Z" fill="white"/>
<path d="M9.23231 76.6164L0.899414 75.0732L1.6368 71.0746C1.79498 70.2169 2.15556 69.5793 2.71853 69.1617C3.28306 68.7358 3.96393 68.5966 4.76113 68.7443C5.2982 68.8437 5.70679 69.0281 5.9869 69.2974C6.26856 69.5583 6.46462 69.8598 6.57508 70.202C6.67714 70.5427 6.73725 70.8756 6.75539 71.2007L10.521 69.6283L10.314 70.7509L6.74457 72.1771L6.20956 75.0783L9.40677 75.6703L9.23231 76.6164ZM5.31585 74.9128L5.84853 72.0242C5.90436 71.7214 5.91481 71.406 5.87988 71.0777C5.84495 70.7495 5.72939 70.4585 5.53319 70.2048C5.33015 69.941 5.01465 69.7696 4.58667 69.6903C4.058 69.5924 3.60927 69.6963 3.24049 70.0019C2.86332 70.306 2.61968 70.7566 2.50957 71.3537L1.96758 74.2927L5.31585 74.9128Z" fill="white"/>
<path d="M12.0536 64.2978L3.97559 61.7305L4.26607 60.8126L12.3441 63.3799L12.0536 64.2978Z" fill="white"/>
<path d="M15.9376 54.4605C15.5805 55.2278 15.098 55.809 14.4902 56.2044C13.8748 56.5961 13.1989 56.8039 12.4627 56.8277C11.7301 56.8439 11.0004 56.682 10.2734 56.3422C9.54644 56.0024 8.95375 55.546 8.49534 54.9732C8.04054 54.3926 7.76901 53.7419 7.68073 53.0212C7.58473 52.297 7.7153 51.5512 8.07245 50.7839C8.34301 50.2027 8.69093 49.7284 9.11619 49.361C9.53372 48.99 9.99612 48.7249 10.5034 48.5657C11.0107 48.4065 11.538 48.3558 12.0856 48.4136L11.6581 49.3319C11.0961 49.3051 10.5785 49.4359 10.1053 49.7243C9.63209 50.0126 9.24757 50.4746 8.95175 51.1101C8.66315 51.73 8.55524 52.326 8.62802 52.8979C8.69668 53.4584 8.91071 53.9595 9.27011 54.4011C9.62951 54.8428 10.0992 55.1992 10.6793 55.4703C11.2515 55.7379 11.8259 55.8695 12.4023 55.8653C12.9709 55.8574 13.4954 55.7016 13.9759 55.3977C14.4522 55.0825 14.8346 54.6149 15.1232 53.9949C15.4191 53.3594 15.5252 52.7674 15.4416 52.2187C15.358 51.6701 15.1254 51.1886 14.7438 50.7744L15.1713 49.856C15.5596 50.2356 15.8597 50.6732 16.0716 51.1686C16.2759 51.6604 16.3742 52.1876 16.3665 52.7502C16.3512 53.3092 16.2082 53.8793 15.9376 54.4605Z" fill="white"/>
<path d="M24.4607 39.8998L17.9263 34.4932L20.5098 31.3576C21.064 30.6849 21.6884 30.3033 22.3829 30.2125C23.0828 30.1151 23.7454 30.3251 24.3705 30.8424C24.7917 31.1908 25.0594 31.5509 25.1736 31.9227C25.2933 32.2879 25.3184 32.6469 25.249 32.9998C25.1729 33.3472 25.064 33.6674 24.9222 33.9604L28.9758 34.4199L28.2505 35.3003L24.4393 34.8084L22.5648 37.0835L25.072 39.1579L24.4607 39.8998ZM21.864 36.5036L23.7303 34.2385C23.9259 34.0011 24.0881 33.7304 24.2167 33.4266C24.3453 33.1227 24.3855 32.8121 24.337 32.4948C24.2875 32.1654 24.0949 31.8619 23.7593 31.5842C23.3447 31.2412 22.9022 31.1135 22.4316 31.201C21.9545 31.2831 21.5231 31.5583 21.1373 32.0264L19.2383 34.3312L21.864 36.5036Z" fill="white"/>
<path d="M35.5024 28.2591C34.9747 28.7196 34.404 29.0134 33.7904 29.1407C33.1776 29.2558 32.5704 29.2017 31.9688 28.9782C31.3673 28.7547 30.8199 28.3592 30.3268 27.7916L27.1577 24.1445L27.8817 23.5128L31.0676 27.1792C31.4991 27.6758 31.9427 27.9975 32.3983 28.1442C32.8604 28.2853 33.3071 28.298 33.7385 28.1824C34.1707 28.0547 34.5541 27.8449 34.8888 27.5529C35.2299 27.2552 35.49 26.9035 35.6692 26.4977C35.8428 26.0854 35.8917 25.6402 35.8157 25.1622C35.7398 24.6842 35.4861 24.1968 35.0546 23.7002L31.8687 20.0338L32.5928 19.402L35.7618 23.0491C36.2494 23.6102 36.5622 24.2047 36.7004 24.8325C36.8386 25.4603 36.8054 26.0732 36.6008 26.6713C36.4027 27.2637 36.0366 27.793 35.5024 28.2591Z" fill="white"/>
<path d="M45.8486 20.5722C45.1388 21.0154 44.5043 21.2806 43.9452 21.3677C43.3815 21.4476 42.8814 21.3871 42.4447 21.1862C42.0153 20.9807 41.6494 20.6752 41.3469 20.2696L42.1944 19.7404C42.4327 20.0753 42.7246 20.286 43.07 20.3726C43.4109 20.4519 43.7832 20.4361 44.1868 20.3252C44.5976 20.2097 45.0094 20.0231 45.4223 19.7653C46.0307 19.3854 46.4469 18.9795 46.6709 18.5474C46.8904 18.1081 46.8693 17.6779 46.6076 17.2569C46.4496 17.0029 46.2327 16.8562 45.9569 16.8169C45.6838 16.7657 45.3672 16.782 45.007 16.8658C44.6541 16.9451 44.279 17.0534 43.8817 17.1906C43.4799 17.3206 43.0722 17.4492 42.6587 17.5764C42.2524 17.6991 41.8556 17.7806 41.4684 17.8209C41.0884 17.8566 40.7379 17.8185 40.417 17.7066C40.0987 17.5829 39.829 17.3432 39.6079 16.9875C39.2424 16.3996 39.1691 15.7804 39.388 15.1299C39.6141 14.4748 40.1762 13.8669 41.0743 13.3061C41.7117 12.9081 42.2977 12.6783 42.8324 12.6165C43.3626 12.5474 43.8261 12.6056 44.223 12.7911C44.6271 12.972 44.9528 13.2372 45.2002 13.5865L44.3636 14.1088C44.0945 13.7731 43.7239 13.5813 43.2518 13.5335C42.7752 13.4784 42.2073 13.6567 41.5482 14.0682C41.1426 14.3215 40.8379 14.5671 40.634 14.8053C40.4301 15.0434 40.3 15.2707 40.2436 15.4873C40.19 15.6921 40.1807 15.8792 40.2157 16.0488C40.258 16.2138 40.3175 16.3581 40.3942 16.4814C40.5432 16.721 40.7519 16.8627 41.0205 16.9065C41.2918 16.9386 41.604 16.9151 41.9568 16.8358C42.3125 16.7447 42.6926 16.6283 43.0971 16.4866C43.5016 16.3448 43.9093 16.2162 44.3202 16.1007C44.7337 15.9735 45.1328 15.8956 45.5172 15.8672C45.9044 15.8269 46.2572 15.8687 46.5754 15.9924C46.9009 16.1116 47.1765 16.3526 47.4021 16.7155C47.8173 17.3833 47.8842 18.0569 47.6028 18.7363C47.317 19.4085 46.7322 20.0205 45.8486 20.5722Z" fill="white"/>
<path d="M56.27 15.1127C55.5024 15.4452 54.8356 15.6129 54.2697 15.6158C53.7005 15.6108 53.2149 15.4764 52.8129 15.2126C52.4188 14.9455 52.1023 14.5888 51.8633 14.1426L52.7799 13.7457C52.9659 14.1123 53.2232 14.3642 53.552 14.5013C53.8773 14.6305 54.2478 14.6704 54.6634 14.6208C55.0868 14.5678 55.5217 14.4447 55.9682 14.2513C56.6262 13.9663 57.098 13.6269 57.3837 13.233C57.666 12.8312 57.7089 12.4027 57.5125 11.9474C57.394 11.6727 57.2013 11.4953 56.9344 11.4153C56.6719 11.324 56.3564 11.293 55.9878 11.3222C55.6271 11.348 55.2401 11.3991 54.8268 11.4756C54.4102 11.5443 53.988 11.6107 53.5601 11.6749C53.1401 11.7357 52.7357 11.7572 52.3468 11.7393C51.9657 11.718 51.6248 11.6281 51.324 11.4696C51.0277 11.2998 50.7966 11.0226 50.6307 10.638C50.3564 10.0021 50.3758 9.37885 50.6888 8.76816C51.0097 8.15408 51.6557 7.63669 52.6271 7.21598C53.3164 6.91742 53.93 6.77742 54.468 6.79598C55.0025 6.80669 55.4522 6.93331 55.8171 7.17586C56.1899 7.41501 56.4726 7.72574 56.6654 8.10805L55.7607 8.49992C55.5444 8.12778 55.2064 7.88291 54.7466 7.7653C54.2834 7.63983 53.6954 7.73147 52.9826 8.04021C52.5439 8.23021 52.2061 8.42775 51.9692 8.63285C51.7323 8.83794 51.5698 9.04337 51.4819 9.24913C51.3985 9.44364 51.3615 9.62735 51.371 9.80025C51.3883 9.96975 51.4258 10.1212 51.4833 10.2547C51.5951 10.5137 51.7805 10.6849 52.0396 10.7684C52.3031 10.8405 52.6153 10.8637 52.976 10.8379C53.3412 10.8009 53.7343 10.7424 54.1554 10.6625C54.5765 10.5826 54.9987 10.5162 55.4221 10.4632C55.85 10.399 56.2561 10.3815 56.6405 10.4106C57.0294 10.4285 57.372 10.5223 57.6684 10.6921C57.9726 10.8585 58.2093 11.1379 58.3786 11.5304C58.69 12.2526 58.6563 12.9287 58.2772 13.5587C57.8948 14.1808 57.2257 14.6988 56.27 15.1127Z" fill="white"/>
<path d="M64.4262 11.9455L62.2583 3.73633L68.2847 2.13816L68.5205 3.03101L63.4222 4.38305L64.1492 7.13597L68.703 5.92833L68.9421 6.83357L64.3882 8.04122L65.1185 10.8065L70.2169 9.4545L70.4526 10.3473L64.4262 11.9455Z" fill="white"/>
<path d="M75.9295 9.363L74.9619 0.926758L75.9157 0.816912L76.778 8.33561L81.3688 7.80689L81.474 8.72442L75.9295 9.363Z" fill="white"/>
<path d="M100.159 3.2666C99.4123 3.15406 98.7133 3.67137 98.6029 4.40709C98.4906 5.1555 99.0068 5.85593 99.7537 5.96847C100.488 6.0791 101.187 5.56178 101.299 4.81338C101.41 4.07766 100.893 3.37723 100.159 3.2666Z" fill="white"/>
<path d="M110.152 11.8213L112.885 3.7832L118.677 5.76055L118.38 6.63479L113.497 4.96769L112.547 7.76038L116.897 9.24546L116.596 10.1318L112.246 8.64675L111.061 12.1315L110.152 11.8213Z" fill="white"/>
<path d="M121.158 16.0249L125.091 8.50293L128.685 10.39C129.456 10.7948 129.958 11.3283 130.189 11.9907C130.429 12.6569 130.36 13.3499 129.984 14.0695C129.731 14.5543 129.434 14.891 129.095 15.0797C128.763 15.2723 128.417 15.3709 128.058 15.3756C127.704 15.3727 127.368 15.3319 127.053 15.2532L127.44 19.3228L126.431 18.793L126.125 14.9545L123.518 13.5853L122.009 16.4714L121.158 16.0249ZM123.939 12.7786L126.536 14.1418C126.808 14.2846 127.106 14.3878 127.429 14.4513C127.752 14.5149 128.064 14.4902 128.364 14.3773C128.675 14.2608 128.932 14.0094 129.134 13.6231C129.383 13.1458 129.417 12.6855 129.234 12.2422C129.056 11.7913 128.698 11.4249 128.161 11.1432L125.519 9.75613L123.939 12.7786Z" fill="white"/>
<path d="M135.015 24.6159C134.504 24.2294 134.105 23.7877 133.816 23.2908C133.527 22.7938 133.351 22.269 133.286 21.7164C133.228 21.1689 133.274 20.6251 133.424 20.0852C133.58 19.5384 133.838 19.0261 134.198 18.5484C134.563 18.0639 134.984 17.6753 135.461 17.3827C135.938 17.09 136.447 16.8967 136.989 16.8027C137.537 16.7139 138.089 16.7405 138.645 16.8825C139.201 17.0246 139.734 17.2889 140.245 17.6754C140.756 18.0619 141.155 18.5036 141.444 19.0005C141.732 19.4975 141.906 20.0197 141.964 20.5672C142.028 21.1198 141.986 21.6662 141.835 22.2061C141.685 22.7461 141.427 23.2584 141.062 23.7429C140.702 24.2206 140.281 24.6092 139.799 24.9086C139.322 25.2013 138.809 25.392 138.261 25.4809C137.72 25.5749 137.171 25.5508 136.615 25.4088C136.059 25.2667 135.526 25.0024 135.015 24.6159ZM135.578 23.8686C136.13 24.2861 136.693 24.5248 137.268 24.5848C137.855 24.6432 138.408 24.5475 138.928 24.2978C139.459 24.0464 139.916 23.6682 140.296 23.1632C140.682 22.6513 140.92 22.1082 141.011 21.5338C141.108 20.9646 141.046 20.4086 140.824 19.8657C140.614 19.3211 140.233 18.8401 139.682 18.4227C139.137 18.0104 138.571 17.7751 137.984 17.7167C137.402 17.6515 136.848 17.7412 136.322 17.9858C135.802 18.2355 135.349 18.6163 134.964 19.1281C134.583 19.6332 134.342 20.1737 134.239 20.7497C134.148 21.3241 134.211 21.8862 134.428 22.4359C134.65 22.9788 135.033 23.4564 135.578 23.8686Z" fill="white"/>
<path d="M142.427 30.716L148.599 24.8975L149.362 25.7103L147.756 34.4272L152.95 29.5316L153.607 30.2323L147.435 36.0508L146.672 35.238L148.297 26.5035L143.085 31.4167L142.427 30.716Z" fill="white"/>
<path d="M152.372 42.5678L158.634 38.3144L156.975 35.8616L157.727 35.3506L161.584 41.0526L160.831 41.5635L159.172 39.1107L152.91 43.3642L152.372 42.5678Z" fill="white"/>
<path d="M160.446 57.2566L168.386 54.29L170.563 60.1434L169.7 60.4661L167.858 55.5141L165.195 56.5089L166.84 60.932L165.965 61.2592L164.319 56.8361L161.645 57.8354L163.487 62.7873L162.623 63.1099L160.446 57.2566Z" fill="white"/>
<path d="M164.179 68.444L172.488 66.7764L172.707 67.8706L166.744 74.418L173.735 73.0149L173.924 73.9582L165.615 75.6258L165.396 74.5316L171.384 67.9792L164.368 69.3873L164.179 68.444Z" fill="white"/>
<path d="M166.317 81.6561L174.788 81.4141L174.889 84.9915C174.904 85.4958 174.819 85.9816 174.636 86.4488C174.462 86.9243 174.197 87.3511 173.84 87.7291C173.484 88.1072 173.049 88.4105 172.534 88.6391C172.02 88.8676 171.43 88.9914 170.765 89.0105C170.1 89.0295 169.504 88.9396 168.977 88.7407C168.451 88.5419 167.999 88.2639 167.622 87.9068C167.245 87.5497 166.951 87.1389 166.742 86.6744C166.541 86.2181 166.433 85.7379 166.419 85.2335L166.317 81.6561ZM167.253 82.5918L167.326 85.1691C167.343 85.776 167.512 86.2973 167.832 86.7331C168.151 87.1688 168.566 87.4991 169.076 87.7241C169.587 87.9576 170.141 88.0658 170.738 88.0488C171.343 88.0315 171.894 87.8917 172.39 87.6294C172.887 87.3757 173.278 87.0223 173.564 86.5693C173.859 86.116 173.997 85.5859 173.98 84.979L173.906 82.4017L167.253 82.5918Z" fill="white"/>
<path d="M165.196 102.071L173.465 103.926L172.103 110.022L171.204 109.82L172.356 104.663L169.583 104.041L168.554 108.647L167.642 108.443L168.671 103.836L165.885 103.211L164.733 108.368L163.834 108.167L165.196 102.071Z" fill="white"/>
<path d="M162.233 113.489L170.104 116.635L169.692 117.671L161.13 119.898L167.753 122.545L167.397 123.438L159.526 120.293L159.938 119.256L168.524 117.039L161.878 114.383L162.233 113.489Z" fill="white"/>
<path d="M154.861 128.763C155.31 128.026 155.861 127.491 156.514 127.159C157.169 126.839 157.864 126.708 158.598 126.767C159.332 126.826 160.042 127.065 160.726 127.484C161.411 127.903 161.944 128.431 162.327 129.066C162.709 129.701 162.902 130.385 162.905 131.119C162.911 131.864 162.693 132.598 162.253 133.32C161.776 134.101 161.172 134.658 160.439 134.99C159.708 135.335 158.959 135.457 158.19 135.357L158.737 134.459C159.257 134.477 159.749 134.358 160.215 134.102C160.677 133.853 161.077 133.452 161.415 132.897C161.771 132.314 161.947 131.73 161.943 131.146C161.946 130.567 161.799 130.03 161.5 129.537C161.196 129.05 160.772 128.64 160.225 128.305C159.687 127.975 159.128 127.783 158.551 127.73C157.98 127.682 157.437 127.785 156.921 128.04C156.408 128.308 155.974 128.733 155.618 129.317C155.351 129.754 155.194 130.225 155.148 130.727C155.097 131.237 155.176 131.722 155.386 132.181C155.591 132.648 155.945 133.035 156.448 133.343L158.063 130.694L158.806 131.149L156.73 134.553L152.885 132.198L153.346 131.443L154.624 132.226C154.484 131.93 154.382 131.597 154.318 131.227C154.261 130.861 154.272 130.466 154.35 130.043C154.423 129.627 154.594 129.2 154.861 128.763Z" fill="white"/>
<path d="M149.347 136.873L155.947 142.199L155.345 142.949L148.745 137.622L149.347 136.873Z" fill="white"/>
<path d="M144.81 142.239L150.669 148.374L149.864 149.146L141.152 147.612L146.082 152.773L145.389 153.438L139.529 147.304L140.334 146.532L149.064 148.085L144.116 142.905L144.81 142.239Z" fill="white"/>
<path d="M134.796 151.111L139.61 158.099L134.48 161.648L133.957 160.888L138.297 157.885L136.682 155.542L132.806 158.224L132.275 157.453L136.151 154.771L134.529 152.417L130.189 155.42L129.666 154.66L134.796 151.111Z" fill="white"/>
<path d="M124.858 157.454L128.582 165.082L122.982 167.827L122.577 166.998L127.315 164.675L126.066 162.117L121.834 164.192L121.424 163.351L125.655 161.276L124.401 158.707L119.663 161.029L119.258 160.2L124.858 157.454Z" fill="white"/>
<path d="M114.1 162.26L116.611 170.37L112.735 171.575C111.904 171.833 111.173 171.81 110.542 171.504C109.904 171.202 109.464 170.662 109.224 169.886C109.062 169.364 109.035 168.915 109.143 168.542C109.242 168.17 109.417 167.856 109.668 167.599C109.922 167.35 110.188 167.142 110.467 166.975L107.327 164.365L108.415 164.027L111.335 166.531L114.147 165.657L113.183 162.545L114.1 162.26ZM114.416 166.526L111.616 167.397C111.323 167.488 111.039 167.625 110.765 167.809C110.492 167.993 110.288 168.23 110.155 168.522C110.017 168.825 110.012 169.185 110.141 169.601C110.3 170.116 110.6 170.466 111.042 170.651C111.486 170.844 111.997 170.851 112.576 170.671L115.425 169.785L114.416 166.526Z" fill="white"/>
<path d="M97.4121 172.465C98.1622 172.376 98.7009 171.693 98.6145 170.954C98.5265 170.203 97.8447 169.663 97.0946 169.751C96.3572 169.838 95.8185 170.521 95.9065 171.272C95.9929 172.011 96.6747 172.551 97.4121 172.465Z" fill="white"/>
</svg>
