<svg width="220" height="219" viewBox="0 0 220 219" fill="none" xmlns="http://www.w3.org/2000/svg">
<path d="M102.45 208.001C103.205 208.063 103.826 208.258 104.313 208.587C104.788 208.926 105.14 209.329 105.369 209.798C105.597 210.277 105.719 210.757 105.732 211.24L104.489 211.138C104.469 210.858 104.38 210.573 104.222 210.281C104.064 209.99 103.827 209.741 103.513 209.533C103.198 209.325 102.791 209.201 102.291 209.16C101.813 209.121 101.424 209.164 101.125 209.289C100.814 209.424 100.579 209.613 100.42 209.857C100.25 210.1 100.127 210.363 100.05 210.645C99.9724 210.939 99.9227 211.218 99.9009 211.484L99.3251 218.5L98.1291 218.402L98.7089 211.338C98.7595 210.721 98.9191 210.146 99.1877 209.611C99.4457 209.076 99.8442 208.654 100.383 208.345C100.911 208.046 101.6 207.931 102.45 208.001Z" fill="black"/>
<path d="M91.2683 206.717L88.8931 217.039L81.2995 215.292L81.5578 214.169L87.982 215.647L88.7785 212.186L83.0404 210.866L83.3024 209.727L89.0404 211.048L89.8405 207.571L83.4164 206.092L83.6747 204.97L91.2683 206.717Z" fill="black"/>
<path d="M77.0478 202.884L73.1641 212.738L66.0487 209.934L66.4711 208.862L72.47 211.226L73.8194 207.803L68.4754 205.697L68.9037 204.61L74.2476 206.716L75.9314 202.444L77.0478 202.884Z" fill="black"/>
<path d="M63.5554 196.979L58.2495 206.146L51.6303 202.315L52.2074 201.318L57.788 204.548L59.6314 201.363L54.6601 198.486L55.2452 197.475L60.2165 200.352L62.5168 196.378L63.5554 196.979Z" fill="black"/>
<path d="M47.5139 186.106C48.134 186.611 48.6128 187.18 48.9501 187.813C49.2875 188.446 49.4839 189.108 49.5392 189.8C49.5863 190.485 49.5035 191.161 49.2908 191.827C49.0714 192.501 48.7258 193.128 48.2541 193.707C47.7756 194.294 47.2316 194.759 46.622 195.101C46.0125 195.444 45.3675 195.661 44.6869 195.753C43.9981 195.839 43.3098 195.78 42.622 195.577C41.9341 195.374 41.2802 195.02 40.6601 194.514C40.04 194.009 39.5612 193.44 39.2238 192.807C38.8864 192.174 38.6942 191.515 38.6472 190.83C38.5918 190.138 38.6705 189.459 38.8832 188.793C39.0958 188.127 39.4414 187.501 39.9199 186.914C40.3917 186.335 40.9357 185.87 41.5519 185.519C42.1615 185.176 42.8106 184.963 43.4994 184.877C44.18 184.785 44.8642 184.841 45.552 185.043C46.2398 185.246 46.8938 185.6 47.5139 186.106ZM46.776 187.011C46.1062 186.465 45.4137 186.142 44.6983 186.04C43.9678 185.94 43.2723 186.034 42.6116 186.321C41.936 186.61 41.3488 187.06 40.8501 187.672C40.3446 188.292 40.022 188.958 39.8822 189.669C39.7342 190.374 39.7861 191.07 40.0381 191.757C40.275 192.446 40.7283 193.063 41.398 193.609C42.0595 194.148 42.7554 194.468 43.4858 194.568C44.2095 194.676 44.9058 194.59 45.5747 194.309C46.2354 194.022 46.8185 193.569 47.3239 192.949C47.8226 192.337 48.1494 191.674 48.3042 190.961C48.4439 190.249 48.3912 189.546 48.146 188.85C47.8941 188.163 47.4374 187.55 46.776 187.011Z" fill="black"/>
<path d="M38.5369 178.158L30.5581 185.125L29.6426 184.076L32.0518 173.285L25.3386 179.146L24.5494 178.243L32.5281 171.276L33.4436 172.325L31.0103 183.137L37.7476 177.254L38.5369 178.158Z" fill="black"/>
<path d="M28.055 165.148L19.0728 170.762L14.9433 164.154L15.9202 163.543L19.4137 169.134L22.4259 167.251L19.3055 162.258L20.296 161.639L23.4164 166.632L26.4421 164.741L22.9486 159.151L23.9255 158.541L28.055 165.148Z" fill="black"/>
<path d="M17.6297 145.442L6.16613 144.446L5.70049 143.016L14.3801 135.462L14.7912 136.724L12.2714 138.908L13.8962 143.898L17.2185 144.179L17.6297 145.442ZM12.7028 143.799L11.3653 139.691L7.11999 143.345L12.7028 143.799Z" fill="black"/>
<path d="M12.3861 124.821C12.5173 125.685 12.4443 126.484 12.167 127.217C11.8777 127.94 11.4138 128.545 10.7753 129.03C10.1369 129.515 9.35369 129.828 8.42564 129.969L2.46191 130.874L2.28188 129.688L8.27725 128.778C9.08928 128.655 9.7252 128.402 10.185 128.019C10.6432 127.626 10.956 127.163 11.1233 126.631C11.2785 126.089 11.3145 125.544 11.2313 124.996C11.1465 124.437 10.9504 123.927 10.6432 123.467C10.3254 123.008 9.88945 122.659 9.33524 122.419C8.78102 122.18 8.0979 122.121 7.28586 122.245L1.29049 123.154L1.11046 121.968L7.07419 121.063C7.99169 120.924 8.82726 120.991 9.5809 121.265C10.3345 121.539 10.9577 121.984 11.4503 122.6C11.9413 123.205 12.2532 123.945 12.3861 124.821Z" fill="black"/>
<path d="M11.0218 112.572L0.431641 112.375L0.514477 107.912C0.526155 107.283 0.659984 106.682 0.915963 106.111C1.16148 105.529 1.51778 105.013 1.98488 104.563C2.45198 104.113 3.01328 103.76 3.66878 103.506C4.32429 103.251 5.06797 103.132 5.89982 103.147C6.73168 103.162 7.47041 103.31 8.11602 103.588C8.76162 103.867 9.30947 104.24 9.75954 104.707C10.2096 105.174 10.5519 105.703 10.7863 106.294C11.0102 106.874 11.1163 107.479 11.1047 108.108L11.0218 112.572ZM9.90828 111.351L9.96796 108.135C9.98201 107.378 9.80222 106.719 9.42858 106.157C9.05494 105.595 8.55627 105.159 7.93259 104.849C7.30911 104.528 6.62409 104.361 5.87756 104.347C5.12035 104.333 4.42427 104.475 3.7893 104.772C3.15454 105.059 2.64537 105.476 2.26181 106.024C1.86758 106.571 1.66344 107.224 1.64939 107.981L1.58971 111.196L9.90828 111.351Z" fill="black"/>
<path d="M11.9713 95.8979L1.55566 93.9731L2.47735 88.9856C2.67507 87.9157 3.12577 87.1204 3.82946 86.5996C4.53509 86.0683 5.38613 85.8947 6.38259 86.0789C7.05389 86.2029 7.56461 86.4329 7.91473 86.7688C8.2668 87.0942 8.51186 87.4703 8.64992 87.8972C8.77749 88.3221 8.85262 88.7373 8.8753 89.1429L13.5821 87.1815L13.3233 88.5818L8.86177 90.3607L8.19304 93.9794L12.1894 94.7179L11.9713 95.8979ZM7.07595 93.773L7.74178 90.17C7.81156 89.7924 7.82462 89.3989 7.78096 88.9894C7.7373 88.58 7.59285 88.2171 7.34762 87.9006C7.09383 87.5716 6.69947 87.3577 6.16453 87.2589C5.50372 87.1368 4.94283 87.2663 4.48188 87.6476C4.01043 88.0269 3.7059 88.5889 3.56827 89.3336L2.89082 92.9996L7.07595 93.773Z" fill="black"/>
<path d="M15.4973 80.533L5.40088 77.3309L5.76365 76.1871L15.86 79.3891L15.4973 80.533Z" fill="black"/>
<path d="M20.3529 68.2614C19.9064 69.2184 19.3034 69.9435 18.5437 70.4366C17.7744 70.9251 16.9296 71.1843 16.0095 71.2141C15.0938 71.2342 14.1816 71.0324 13.2729 70.6085C12.3643 70.1846 11.6234 69.6154 11.0504 68.9009C10.482 68.1767 10.1426 67.3651 10.0322 66.4662C9.91224 65.5628 10.0754 64.6325 10.5219 63.6755C10.86 62.9505 11.2949 62.3589 11.8265 61.9007C12.3484 61.4379 12.9263 61.1072 13.5604 60.9087C14.1944 60.7101 14.8537 60.6468 15.538 60.7189L15.0037 61.8644C14.3013 61.831 13.6543 61.9941 13.0628 62.3538C12.4713 62.7135 11.9907 63.2896 11.6209 64.0823C11.2602 64.8556 11.1253 65.599 11.2163 66.3123C11.3021 67.0115 11.5696 67.6365 12.0189 68.1874C12.4681 68.7383 13.0552 69.1828 13.7802 69.521C14.4955 69.8547 15.2134 70.0189 15.9339 70.0136C16.6446 70.0038 17.3003 69.8095 17.9008 69.4304C18.4962 69.0373 18.9742 68.454 19.3349 67.6807C19.7047 66.888 19.8373 66.1495 19.7328 65.4652C19.6283 64.7809 19.3376 64.1803 18.8607 63.6636L19.395 62.5181C19.8803 62.9916 20.2555 63.5374 20.5204 64.1553C20.7757 64.7687 20.8985 65.4263 20.889 66.1281C20.8698 66.8253 20.6911 67.5364 20.3529 68.2614Z" fill="black"/>
<path d="M31.0061 50.1004L22.8384 43.3566L26.0677 39.4455C26.7604 38.6065 27.5408 38.1304 28.4089 38.0172C29.2838 37.8958 30.1119 38.1576 30.8933 38.8028C31.4198 39.2375 31.7543 39.6866 31.8971 40.1503C32.0467 40.6058 32.0781 41.0536 31.9913 41.4938C31.8963 41.9272 31.7602 42.3266 31.5829 42.692L36.6497 43.2652L35.7431 44.3633L30.9793 43.7498L28.6363 46.5875L31.7701 49.1751L31.0061 50.1004ZM27.7603 45.8643L30.0931 43.0389C30.3376 42.7428 30.5403 42.4052 30.7011 42.0262C30.8619 41.6471 30.912 41.2597 30.8515 40.8639C30.7895 40.4531 30.5488 40.0745 30.1293 39.7282C29.6111 39.3003 29.0579 39.141 28.4698 39.2502C27.8734 39.3526 27.3342 39.6958 26.852 40.2798L24.4784 43.1545L27.7603 45.8643Z" fill="black"/>
<path d="M44.8078 35.5813C44.1482 36.1556 43.4349 36.5222 42.6679 36.6809C41.9019 36.8245 41.143 36.757 40.3911 36.4782C39.6391 36.1994 38.955 35.7061 38.3386 34.9982L34.3774 30.4491L35.2824 29.6611L39.2646 34.2343C39.8039 34.8537 40.3584 35.2549 40.9279 35.4379C41.5055 35.6139 42.0638 35.6298 42.603 35.4856C43.1433 35.3264 43.6225 35.0646 44.0408 34.7004C44.4672 34.3291 44.7924 33.8904 45.0163 33.3842C45.2333 32.87 45.2944 32.3147 45.1995 31.7185C45.1046 31.1222 44.7875 30.5143 44.2481 29.8949L40.2659 25.3217L41.1709 24.5337L45.1321 29.0828C45.7415 29.7826 46.1325 30.5241 46.3053 31.3072C46.478 32.0903 46.4365 32.8548 46.1808 33.6008C45.9332 34.3397 45.4755 34.9999 44.8078 35.5813Z" fill="black"/>
<path d="M57.7396 25.9922C56.8524 26.545 56.0594 26.8758 55.3605 26.9845C54.6559 27.0841 54.0308 27.0086 53.485 26.758C52.9483 26.5017 52.4909 26.1206 52.1128 25.6147L53.172 24.9547C53.47 25.3724 53.8348 25.6352 54.2666 25.7432C54.6927 25.8421 55.158 25.8224 55.6624 25.6841C56.176 25.5401 56.6907 25.3073 57.2068 24.9858C57.9672 24.5119 58.4875 24.0055 58.7675 23.4666C59.0419 22.9186 59.0155 22.3821 58.6883 21.857C58.4909 21.5401 58.2198 21.3572 57.875 21.3081C57.5336 21.2443 57.1379 21.2646 56.6877 21.3692C56.2466 21.4681 55.7778 21.6031 55.2812 21.7743C54.7789 21.9364 54.2693 22.0968 53.7524 22.2555C53.2445 22.4086 52.7486 22.5102 52.2646 22.5604C51.7897 22.605 51.3516 22.5575 50.9504 22.4178C50.5526 22.2635 50.2155 21.9645 49.9391 21.5209C49.4822 20.7876 49.3906 20.0153 49.6642 19.2038C49.9469 18.3867 50.6495 17.6285 51.7721 16.929C52.5688 16.4326 53.3013 16.1459 53.9696 16.0688C54.6323 15.9827 55.2116 16.0553 55.7077 16.2866C56.2128 16.5123 56.6199 16.843 56.9291 17.2788L55.8835 17.9303C55.5471 17.5115 55.0839 17.2722 54.4938 17.2126C53.898 17.144 53.1882 17.3663 52.3644 17.8796C51.8574 18.1955 51.4765 18.5019 51.2217 18.7989C50.9669 19.096 50.8042 19.3795 50.7338 19.6497C50.6667 19.9051 50.6551 20.1386 50.6989 20.3501C50.7517 20.5559 50.8261 20.7358 50.922 20.8897C51.1081 21.1884 51.3691 21.3652 51.7048 21.4199C52.0439 21.46 52.4341 21.4306 52.8752 21.3317C53.3197 21.2181 53.7948 21.0729 54.3004 20.8961C54.8061 20.7193 55.3156 20.5588 55.8292 20.4148C56.3461 20.2561 56.8449 20.159 57.3254 20.1235C57.8094 20.0733 58.2503 20.1253 58.6481 20.2797C59.0549 20.4283 59.3994 20.729 59.6814 21.1817C60.2004 22.0146 60.284 22.8548 59.9323 23.7023C59.575 24.5407 58.8441 25.304 57.7396 25.9922Z" fill="black"/>
<path d="M70.7655 19.1827C69.806 19.5974 68.9725 19.8065 68.2652 19.8101C67.5537 19.8039 66.9467 19.6363 66.4443 19.3073C65.9517 18.974 65.556 18.5292 65.2574 17.9726L66.403 17.4775C66.6355 17.9348 66.9572 18.2489 67.3681 18.4199C67.7748 18.5812 68.2378 18.6309 68.7572 18.5691C69.2865 18.503 69.8301 18.3494 70.3882 18.1081C71.2107 17.7527 71.8005 17.3293 72.1575 16.838C72.5103 16.3369 72.564 15.8024 72.3186 15.2345C72.1704 14.8918 71.9296 14.6705 71.5959 14.5707C71.2678 14.4569 70.8734 14.4182 70.4127 14.4546C69.9618 14.4868 69.4781 14.5506 68.9616 14.646C68.4408 14.7317 67.9131 14.8145 67.3783 14.8946C66.8533 14.9704 66.3477 14.9972 65.8617 14.9749C65.3854 14.9483 64.9592 14.8362 64.5833 14.6384C64.2129 14.4267 63.924 14.0809 63.7166 13.6012C63.3738 12.8081 63.3981 12.0306 63.7893 11.2689C64.1903 10.503 64.9979 9.8576 66.212 9.33285C67.0736 8.96044 67.8406 8.78581 68.513 8.80896C69.1811 8.82232 69.7433 8.98026 70.1994 9.28279C70.6653 9.5811 71.0187 9.96868 71.2597 10.4455L70.1288 10.9343C69.8585 10.4702 69.436 10.1647 68.8613 10.018C68.2823 9.86153 67.5474 9.97583 66.6564 10.3609C66.108 10.5979 65.6858 10.8443 65.3897 11.1001C65.0935 11.356 64.8905 11.6122 64.7807 11.8688C64.6764 12.1115 64.6301 12.3406 64.642 12.5563C64.6637 12.7677 64.7105 12.9566 64.7824 13.1231C64.9221 13.4462 65.1538 13.6598 65.4777 13.7638C65.8071 13.8539 66.1973 13.8828 66.6482 13.8506C67.1046 13.8044 67.596 13.7314 68.1223 13.6318C68.6486 13.5321 69.1764 13.4492 69.7057 13.3832C70.2404 13.3031 70.7481 13.2812 71.2286 13.3176C71.7147 13.3399 72.1429 13.4569 72.5133 13.6687C72.8935 13.8762 73.1894 14.2248 73.401 14.7143C73.7904 15.6151 73.7481 16.4584 73.2743 17.2442C72.7963 18.0202 71.96 18.6664 70.7655 19.1827Z" fill="black"/>
<path d="M80.9607 15.2322L78.251 4.99268L85.7837 2.99925L86.0784 4.11291L79.7058 5.79934L80.6145 9.23314L86.3065 7.72681L86.6053 8.85594L80.9133 10.3623L81.8261 13.8115L88.1987 12.1251L88.4934 13.2388L80.9607 15.2322Z" fill="black"/>
<path d="M95.3393 12.0111L94.1299 1.4884L95.322 1.35139L96.3999 10.7297L102.138 10.0702L102.27 11.2146L95.3393 12.0111Z" fill="black"/>
<path d="M125.625 4.40777C124.692 4.2674 123.818 4.91266 123.68 5.83034C123.54 6.76385 124.185 7.63751 125.118 7.77788C126.036 7.91588 126.91 7.27062 127.05 6.33711C127.188 5.41943 126.543 4.54577 125.625 4.40777Z" fill="black"/>
<path d="M138.116 15.0786L141.532 5.05249L148.771 7.51889L148.4 8.60934L142.296 6.52993L141.109 10.0133L146.546 11.8657L146.17 12.9713L140.733 11.1189L139.252 15.4656L138.116 15.0786Z" fill="black"/>
<path d="M151.872 20.3208L156.788 10.9385L161.28 13.2923C162.244 13.7972 162.871 14.4627 163.161 15.2888C163.46 16.1199 163.374 16.9842 162.904 17.8818C162.587 18.4865 162.217 18.9065 161.792 19.1418C161.377 19.3821 160.946 19.5051 160.497 19.5109C160.053 19.5073 159.634 19.4564 159.24 19.3583L159.724 24.4344L158.462 23.7735L158.081 18.9856L154.821 17.2778L152.935 20.8777L151.872 20.3208ZM155.348 16.2716L158.594 17.9719C158.934 18.1501 159.306 18.2789 159.71 18.3581C160.114 18.4373 160.504 18.4065 160.878 18.2657C161.268 18.1204 161.588 17.8068 161.841 17.3249C162.153 16.7297 162.195 16.1556 161.967 15.6026C161.743 15.0401 161.296 14.5831 160.626 14.2317L157.323 12.5016L155.348 16.2716Z" fill="black"/>
<path d="M169.193 31.0359C168.554 30.5538 168.055 30.0028 167.694 29.383C167.333 28.7631 167.113 28.1085 167.032 27.4192C166.959 26.7363 167.017 26.0581 167.205 25.3846C167.399 24.7025 167.721 24.0636 168.171 23.4677C168.627 22.8633 169.154 22.3786 169.75 22.0137C170.346 21.6487 170.983 21.4075 171.66 21.2903C172.345 21.1795 173.035 21.2126 173.73 21.3898C174.425 21.5671 175.091 21.8967 175.73 22.3788C176.368 22.8609 176.868 23.4118 177.228 24.0317C177.589 24.6515 177.805 25.3029 177.878 25.9858C177.959 26.6752 177.905 27.3566 177.718 28.0301C177.53 28.7036 177.208 29.3426 176.751 29.947C176.301 30.5428 175.775 31.0275 175.172 31.401C174.576 31.766 173.935 32.0039 173.25 32.1147C172.573 32.232 171.887 32.202 171.193 32.0248C170.498 31.8476 169.831 31.518 169.193 31.0359ZM169.896 30.1038C170.586 30.6244 171.29 30.9222 172.009 30.9971C172.742 31.0699 173.434 30.9505 174.084 30.6391C174.748 30.3255 175.318 29.8537 175.794 29.2238C176.276 28.5854 176.574 27.908 176.687 27.1915C176.809 26.4815 176.731 25.7879 176.454 25.1108C176.191 24.4315 175.715 23.8315 175.026 23.3109C174.345 22.7967 173.638 22.5032 172.904 22.4304C172.177 22.3491 171.484 22.4609 170.826 22.766C170.176 23.0775 169.611 23.5524 169.129 24.1908C168.653 24.8208 168.351 25.495 168.223 26.2135C168.109 26.9299 168.188 27.631 168.459 28.3167C168.736 28.9939 169.215 29.5896 169.896 30.1038Z" fill="black"/>
<path d="M178.458 38.6447L186.172 31.3871L187.126 32.401L185.119 43.2738L191.61 37.1673L192.432 38.0414L184.718 45.299L183.764 44.2851L185.794 33.3903L179.28 39.5187L178.458 38.6447Z" fill="black"/>
<path d="M190.887 53.4289L198.714 48.1235L196.641 45.064L197.581 44.4266L202.402 51.5388L201.461 52.1762L199.388 49.1168L191.56 54.4222L190.887 53.4289Z" fill="black"/>
<path d="M200.98 71.7494L210.904 68.0492L213.626 75.3503L212.547 75.7527L210.244 69.576L206.916 70.8169L208.973 76.3339L207.878 76.7419L205.821 71.2249L202.478 72.4714L204.781 78.648L203.702 79.0505L200.98 71.7494Z" fill="black"/>
<path d="M205.646 85.705L216.032 83.625L216.306 84.9899L208.852 93.1566L217.591 91.4065L217.826 92.5831L207.441 94.6631L207.167 93.2982L214.652 85.1253L205.882 86.8817L205.646 85.705Z" fill="black"/>
<path d="M208.318 102.185L218.906 101.883L219.033 106.345C219.051 106.974 218.946 107.58 218.717 108.163C218.499 108.756 218.167 109.288 217.722 109.76C217.276 110.231 216.732 110.61 216.089 110.895C215.447 111.18 214.709 111.334 213.878 111.358C213.046 111.382 212.301 111.269 211.643 111.021C210.985 110.773 210.421 110.427 209.949 109.981C209.477 109.536 209.111 109.023 208.849 108.444C208.598 107.875 208.463 107.276 208.445 106.647L208.318 102.185ZM209.488 103.352L209.579 106.566C209.601 107.323 209.812 107.974 210.211 108.517C210.611 109.061 211.13 109.473 211.767 109.753C212.405 110.045 213.097 110.18 213.844 110.158C214.601 110.137 215.289 109.962 215.91 109.635C216.53 109.319 217.019 108.878 217.376 108.313C217.744 107.748 217.918 107.086 217.896 106.329L217.804 103.115L209.488 103.352Z" fill="black"/>
<path d="M206.917 127.649L217.253 129.963L215.551 137.567L214.426 137.315L215.867 130.882L212.4 130.106L211.114 135.852L209.974 135.597L211.261 129.851L207.779 129.071L206.339 135.504L205.214 135.252L206.917 127.649Z" fill="black"/>
<path d="M203.214 141.89L213.052 145.814L212.537 147.107L201.835 149.884L210.113 153.185L209.668 154.3L199.83 150.376L200.345 149.083L211.077 146.318L202.769 143.005L203.214 141.89Z" fill="black"/>
<path d="M193.999 160.941C194.561 160.022 195.25 159.355 196.065 158.941C196.884 158.542 197.753 158.379 198.671 158.452C199.588 158.526 200.475 158.824 201.33 159.347C202.186 159.869 202.853 160.527 203.331 161.319C203.809 162.112 204.05 162.965 204.054 163.88C204.061 164.809 203.789 165.725 203.238 166.626C202.643 167.6 201.887 168.294 200.971 168.709C200.058 169.139 199.121 169.291 198.16 169.166L198.844 168.047C199.494 168.069 200.11 167.92 200.692 167.601C201.269 167.291 201.769 166.79 202.192 166.099C202.637 165.37 202.857 164.642 202.852 163.914C202.856 163.192 202.671 162.522 202.297 161.906C201.918 161.3 201.387 160.788 200.705 160.37C200.031 159.959 199.333 159.72 198.611 159.654C197.898 159.593 197.22 159.722 196.575 160.04C195.934 160.373 195.391 160.904 194.946 161.632C194.612 162.178 194.416 162.765 194.358 163.392C194.294 164.028 194.393 164.632 194.656 165.205C194.912 165.787 195.355 166.27 195.983 166.654L198.002 163.35L198.93 163.918L196.335 168.164L191.53 165.226L192.106 164.284L193.703 165.261C193.528 164.892 193.401 164.476 193.321 164.015C193.249 163.558 193.263 163.066 193.36 162.539C193.452 162.02 193.665 161.487 193.999 160.941Z" fill="black"/>
<path d="M187.106 171.057L195.356 177.7L194.603 178.635L186.354 171.991L187.106 171.057Z" fill="black"/>
<path d="M181.436 177.752L188.759 185.404L187.754 186.366L176.864 184.453L183.026 190.891L182.159 191.721L174.835 184.069L175.841 183.106L186.753 185.043L180.569 178.581L181.436 177.752Z" fill="black"/>
<path d="M168.918 188.817L174.937 197.533L168.524 201.96L167.87 201.012L173.294 197.267L171.276 194.344L166.431 197.689L165.767 196.728L170.613 193.383L168.586 190.447L163.161 194.192L162.506 193.244L168.918 188.817Z" fill="black"/>
<path d="M156.496 196.729L161.151 206.244L154.152 209.668L153.646 208.633L159.567 205.736L158.006 202.546L152.717 205.133L152.204 204.084L157.493 201.496L155.925 198.291L150.003 201.189L149.497 200.154L156.496 196.729Z" fill="black"/>
<path d="M143.05 202.723L146.188 212.839L141.344 214.342C140.305 214.664 139.391 214.635 138.603 214.254C137.805 213.876 137.255 213.204 136.955 212.236C136.753 211.584 136.719 211.025 136.854 210.559C136.978 210.096 137.197 209.704 137.511 209.383C137.828 209.073 138.16 208.813 138.509 208.604L134.584 205.349L135.944 204.927L139.593 208.05L143.108 206.96L141.904 203.078L143.05 202.723ZM143.445 208.045L139.945 209.13C139.579 209.244 139.224 209.416 138.882 209.645C138.54 209.874 138.286 210.17 138.119 210.534C137.946 210.912 137.94 211.361 138.101 211.88C138.3 212.522 138.676 212.958 139.228 213.189C139.783 213.43 140.422 213.439 141.145 213.214L144.706 212.11L143.445 208.045Z" fill="black"/>
<path d="M122.191 215.451C123.129 215.342 123.802 214.489 123.694 213.568C123.584 212.63 122.732 211.957 121.794 212.067C120.873 212.175 120.199 213.027 120.309 213.964C120.417 214.886 121.27 215.56 122.191 215.451Z" fill="black"/>
</svg>
